<?xml version="1.0" standalone="no"?>
<!DOCTYPE svg PUBLIC "-//W3C//DTD SVG 20010904//EN"
 "http://www.w3.org/TR/2001/REC-SVG-20010904/DTD/svg10.dtd">
<svg version="1.0" xmlns="http://www.w3.org/2000/svg"
 width="332.000000pt" height="332.000000pt" viewBox="0 0 332.000000 332.000000"
 preserveAspectRatio="xMidYMid meet">
<metadata>
Created by potrace 1.14, written by Peter Selinger 2001-2017
</metadata>
<g transform="translate(0.000000,332.000000) scale(0.100000,-0.100000)"
fill="#000000" stroke="none">
<path d="M51 3295 c8 -7 108 -9 116 -2 3 4 -22 7 -57 7 -35 0 -61 -2 -59 -5z"/>
<path d="M91 3224 c0 -11 3 -14 6 -6 3 7 2 16 -1 19 -3 4 -6 -2 -5 -13z"/>
<path d="M150 3167 c0 -9 -7 -17 -15 -17 -17 0 -42 -46 -32 -57 12 -11 72 13
68 28 -2 8 -5 22 -5 31 -3 24 -16 36 -16 15z"/>
<path d="M95 3160 c3 -5 8 -10 11 -10 2 0 4 5 4 10 0 6 -5 10 -11 10 -5 0 -7
-4 -4 -10z"/>
<path d="M0 3107 c0 -8 6 -14 13 -14 6 0 21 -4 32 -8 16 -5 15 -3 -5 14 -29
24 -40 26 -40 8z"/>
<path d="M36 3054 c-17 -12 -17 -14 -4 -14 9 0 20 5 23 11 11 17 2 18 -19 3z"/>
<path d="M70 2980 c0 -5 7 -7 15 -4 8 4 15 8 15 10 0 2 -7 4 -15 4 -8 0 -15
-4 -15 -10z"/>
<path d="M235 2979 c-9 -14 -2 -20 14 -10 8 6 9 11 3 15 -6 3 -14 1 -17 -5z"/>
<path d="M182 2949 c-14 -22 -7 -25 14 -5 8 8 11 17 6 20 -4 2 -13 -4 -20 -15z"/>
<path d="M20 2950 c0 -5 5 -10 11 -10 5 0 7 5 4 10 -3 6 -8 10 -11 10 -2 0 -4
-4 -4 -10z"/>
<path d="M229 2927 c6 -8 7 -18 3 -22 -4 -5 -2 -5 5 -1 14 8 6 36 -9 36 -7 0
-6 -5 1 -13z"/>
<path d="M198 2883 c7 -3 16 -2 19 1 4 3 -2 6 -13 5 -11 0 -14 -3 -6 -6z"/>
<path d="M32 2764 c7 -15 14 -21 16 -15 5 16 -5 41 -17 41 -7 0 -6 -10 1 -26z"/>
<path d="M373 2712 c0 -20 5 -28 19 -28 10 0 18 5 18 12 0 6 -8 18 -18 27 -18
16 -19 16 -19 -11z"/>
<path d="M36 2711 c-3 -5 3 -11 13 -14 14 -3 18 -1 14 9 -6 16 -19 18 -27 5z"/>
<path d="M0 2694 c0 -8 5 -12 10 -9 6 4 8 11 5 16 -9 14 -15 11 -15 -7z"/>
<path d="M110 2700 c0 -5 5 -10 10 -10 6 0 10 5 10 10 0 6 -4 10 -10 10 -5 0
-10 -4 -10 -10z"/>
<path d="M330 2689 c0 -5 5 -7 10 -4 6 3 10 8 10 11 0 2 -4 4 -10 4 -5 0 -10
-5 -10 -11z"/>
<path d="M187 2666 c-4 -10 -5 -21 -2 -24 9 -9 17 6 13 25 -3 17 -4 17 -11 -1z"/>
<path d="M20 2662 c0 -4 9 -15 20 -25 19 -16 20 -16 20 4 0 11 -4 17 -10 14
-5 -3 -10 -1 -10 4 0 6 -4 11 -10 11 -5 0 -10 -3 -10 -8z"/>
<path d="M1 2644 c0 -11 3 -14 6 -6 3 7 2 16 -1 19 -3 4 -6 -2 -5 -13z"/>
<path d="M380 2650 c0 -5 5 -10 10 -10 6 0 10 5 10 10 0 6 -4 10 -10 10 -5 0
-10 -4 -10 -10z"/>
<path d="M2 2600 c0 -14 2 -19 5 -12 2 6 2 18 0 25 -3 6 -5 1 -5 -13z"/>
<path d="M25 2587 c-4 -15 -11 -27 -16 -27 -5 0 -9 -14 -9 -31 0 -17 4 -28 10
-24 5 3 10 -1 10 -9 0 -9 -4 -16 -10 -16 -6 0 -10 -34 -10 -81 0 -72 2 -80 15
-69 12 10 13 16 4 26 -9 12 -6 13 21 7 26 -5 32 -3 28 8 -3 8 -11 15 -19 15
-31 3 -33 5 -16 15 14 8 16 14 6 25 -6 8 -9 26 -6 41 3 15 1 37 -4 50 -6 17
-5 23 5 23 8 0 17 -6 19 -12 3 -7 6 -4 6 8 1 11 6 25 13 32 9 9 8 12 -5 12 -9
0 -20 8 -26 17 -8 16 -10 14 -16 -10z"/>
<path d="M1687 2579 c-172 -18 -343 -100 -478 -229 -31 -29 -59 -44 -103 -56
-85 -23 -213 -85 -264 -129 -72 -63 -103 -145 -82 -221 16 -56 81 -116 146
-134 l46 -13 -7 -198 c-8 -220 -3 -261 48 -369 103 -221 425 -360 740 -320
195 26 334 88 453 203 44 43 96 87 115 99 106 64 211 220 243 361 40 175 5
419 -86 601 -142 282 -441 439 -771 405z m269 -89 c235 -59 406 -218 483 -448
18 -54 53 -233 47 -240 -2 -1 -18 3 -37 10 -21 7 -74 52 -139 117 -58 59 -133
128 -168 155 -187 142 -476 237 -734 240 -65 0 -118 3 -118 6 1 11 108 82 165
110 142 70 342 90 501 50z m-336 -260 c194 -39 348 -101 459 -183 62 -46 241
-215 241 -228 0 -5 -51 -7 -112 -6 -134 3 -150 10 -348 145 -250 171 -296 200
-372 231 -42 17 -104 37 -138 45 -34 8 -65 18 -69 22 -13 14 237 -5 339 -26z
m-315 -57 l90 -17 -80 -11 c-212 -31 -319 -103 -356 -237 -5 -21 -14 -38 -20
-38 -15 0 -87 38 -95 51 -20 33 -22 85 -5 124 54 122 234 171 466 128z m391
-184 c244 -173 338 -227 413 -238 l46 -6 1 -77 c2 -92 7 -108 34 -108 15 0 26
14 44 54 20 45 30 56 58 64 84 23 148 -22 148 -105 0 -74 -55 -139 -151 -180
-20 -8 -32 -26 -44 -62 -37 -112 -132 -219 -244 -275 -273 -137 -669 -101
-854 78 -60 58 -110 149 -127 232 -13 63 2 484 19 543 36 120 164 173 407 168
l130 -3 120 -85z"/>
<path d="M1075 2160 c-3 -5 3 -10 15 -10 12 0 18 5 15 10 -3 6 -10 10 -15 10
-5 0 -12 -4 -15 -10z"/>
<path d="M1090 2110 c-8 -5 -10 -10 -5 -10 6 0 17 5 25 10 8 5 11 10 5 10 -5
0 -17 -5 -25 -10z"/>
<path d="M1620 2006 c0 -2 7 -7 16 -10 8 -3 12 -2 9 4 -6 10 -25 14 -25 6z"/>
<path d="M1705 1930 c-3 -6 1 -7 9 -4 18 7 21 14 7 14 -6 0 -13 -4 -16 -10z"/>
<path d="M1700 1834 c-40 -14 -60 -29 -58 -42 4 -20 198 -25 198 -5 0 25 -103
60 -140 47z"/>
<path d="M1127 1818 c-17 -6 -27 -16 -25 -26 4 -23 181 -23 186 -1 6 33 -97
51 -161 27z"/>
<path d="M1295 1720 c3 -5 8 -10 11 -10 2 0 4 5 4 10 0 6 -5 10 -11 10 -5 0
-7 -4 -4 -10z"/>
<path d="M1703 1696 c-42 -19 -53 -43 -53 -115 0 -58 2 -62 33 -81 44 -27 71
-25 107 8 26 24 30 35 32 89 2 52 -1 66 -17 82 -28 27 -64 33 -102 17z"/>
<path d="M1165 1678 c-35 -20 -44 -41 -45 -99 0 -67 19 -90 76 -92 54 -2 84
37 84 107 0 42 -5 57 -23 74 -25 24 -61 28 -92 10z"/>
<path d="M1090 1669 c0 -5 5 -7 10 -4 6 3 10 8 10 11 0 2 -4 4 -10 4 -5 0 -10
-5 -10 -11z"/>
<path d="M2300 1583 c-25 -33 -23 -67 6 -71 15 -2 26 7 39 31 32 60 -4 92 -45
40z"/>
<path d="M1054 1506 c-10 -8 -17 -16 -14 -19 3 -2 14 4 24 14 23 22 18 25 -10
5z"/>
<path d="M1130 1480 c13 -11 25 -20 28 -20 3 0 -3 9 -13 20 -10 11 -23 20 -28
20 -6 0 0 -9 13 -20z"/>
<path d="M1402 1477 c-6 -7 -16 -26 -22 -41 -9 -24 -7 -32 6 -47 18 -20 49
-25 59 -10 3 5 1 12 -5 16 -13 8 -13 52 0 60 12 8 1 35 -15 35 -7 0 -17 -6
-23 -13z"/>
<path d="M1670 1470 c0 -5 7 -10 16 -10 8 0 12 5 9 10 -3 6 -10 10 -16 10 -5
0 -9 -4 -9 -10z"/>
<path d="M1072 1454 c10 -10 20 -16 22 -13 3 3 -5 11 -17 18 -21 13 -21 12 -5
-5z"/>
<path d="M1366 1231 c-19 -20 -19 -22 -1 -41 15 -17 29 -20 68 -18 91 5 89 61
-3 74 -38 5 -48 3 -64 -15z"/>
<path d="M100 2510 c0 -5 5 -10 10 -10 6 0 10 5 10 10 0 6 -4 10 -10 10 -5 0
-10 -4 -10 -10z"/>
<path d="M55 2500 c3 -5 8 -10 11 -10 2 0 4 5 4 10 0 6 -5 10 -11 10 -5 0 -7
-4 -4 -10z"/>
<path d="M42 2448 c2 -18 11 -24 36 -26 24 -3 32 1 32 13 0 12 -6 15 -20 10
-14 -5 -20 -2 -20 9 0 9 -7 16 -16 16 -10 0 -14 -7 -12 -22z"/>
<path d="M260 2435 c14 -17 40 -20 40 -5 0 5 -7 7 -15 4 -8 -4 -15 -1 -15 5 0
6 -5 11 -11 11 -8 0 -8 -5 1 -15z"/>
<path d="M147 2426 c-3 -8 -18 -16 -34 -18 -23 -2 -28 -8 -29 -31 -1 -15 5
-32 12 -38 10 -9 14 -9 14 0 0 6 7 11 15 11 8 0 15 9 15 21 0 11 5 29 11 41 6
11 9 22 6 24 -2 3 -7 -2 -10 -10z m-31 -63 c-11 -11 -17 4 -9 23 7 18 8 18 11
1 2 -10 1 -21 -2 -24z"/>
<path d="M320 2390 c0 -6 7 -10 15 -10 8 0 15 2 15 4 0 2 -7 6 -15 10 -8 3
-15 1 -15 -4z"/>
<path d="M160 2380 c-9 -6 -10 -10 -3 -10 6 0 15 5 18 10 8 12 4 12 -15 0z"/>
<path d="M232 2360 c0 -14 2 -19 5 -12 2 6 2 18 0 25 -3 6 -5 1 -5 -13z"/>
<path d="M207 2363 c-10 -9 -9 -23 1 -23 5 0 9 7 9 15 0 17 -1 18 -10 8z"/>
<path d="M430 2352 c0 -12 39 -32 44 -23 3 4 -6 13 -19 19 -14 7 -25 8 -25 4z"/>
<path d="M147 2331 c-3 -11 0 -22 6 -24 7 -2 7 -9 0 -22 -10 -17 -11 -17 -18
4 -3 11 -11 19 -16 16 -5 -4 -5 -14 1 -25 8 -15 6 -21 -9 -30 -28 -15 -31 -13
-42 20 -10 28 -29 41 -29 20 0 -5 0 -12 0 -15 0 -3 -9 -21 -20 -40 -11 -20
-20 -42 -20 -50 0 -15 25 -16 48 -2 19 12 31 0 38 -39 5 -27 2 -39 -12 -53
-18 -16 -20 -16 -42 11 -25 30 -24 38 3 12 8 -9 22 -13 30 -10 18 7 20 29 3
23 -7 -2 -20 5 -30 15 -13 15 -18 16 -25 6 -10 -17 -11 -58 -1 -58 4 0 8 -12
8 -26 0 -15 4 -23 10 -19 6 4 17 2 25 -5 16 -13 28 1 19 24 -4 10 -1 16 9 16
46 0 78 47 62 90 -6 13 -9 12 -21 -4 -14 -19 -14 -19 -14 1 0 12 8 23 20 26
11 3 20 2 20 -1 0 -4 12 -25 26 -47 23 -37 28 -27 8 19 -4 12 -4 17 3 13 5 -4
10 6 10 23 0 25 -2 27 -12 13 -9 -12 -14 -13 -19 -4 -4 6 -2 18 4 26 8 10 9
15 2 15 -6 0 -14 -4 -17 -10 -8 -13 -25 -13 -25 0 0 6 11 15 25 20 21 8 24 14
18 42 -7 42 -19 55 -26 29z m-57 -111 c7 0 11 -3 7 -6 -11 -11 -47 7 -47 24 1
16 2 16 14 0 7 -10 19 -18 26 -18z m40 -94 c0 -3 -4 -8 -10 -11 -5 -3 -10 -1
-10 4 0 6 5 11 10 11 6 0 10 -2 10 -4z"/>
<path d="M270 2340 c0 -5 7 -10 16 -10 8 0 12 5 9 10 -3 6 -10 10 -16 10 -5 0
-9 -4 -9 -10z"/>
<path d="M316 2333 c-6 -14 -5 -15 5 -6 7 7 10 15 7 18 -3 3 -9 -2 -12 -12z"/>
<path d="M45 2330 c-3 -5 1 -10 9 -10 9 0 16 5 16 10 0 6 -4 10 -9 10 -6 0
-13 -4 -16 -10z"/>
<path d="M245 2309 c4 -12 3 -24 -3 -28 -6 -3 -14 -19 -17 -34 -9 -34 16 -38
39 -5 13 18 16 19 16 6 0 -9 5 -20 10 -23 6 -4 9 -1 8 6 -2 7 6 15 17 17 28 6
49 42 25 42 -5 0 -10 -7 -10 -15 0 -8 -4 -15 -9 -15 -15 0 -23 18 -11 25 16
10 0 26 -20 20 -11 -3 -20 0 -24 10 -9 24 -28 18 -21 -6z"/>
<path d="M200 2299 c0 -5 5 -7 10 -4 6 3 10 8 10 11 0 2 -4 4 -10 4 -5 0 -10
-5 -10 -11z"/>
<path d="M368 2283 c7 -3 16 -2 19 1 4 3 -2 6 -13 5 -11 0 -14 -3 -6 -6z"/>
<path d="M190 2259 c0 -5 5 -7 10 -4 6 3 10 8 10 11 0 2 -4 4 -10 4 -5 0 -10
-5 -10 -11z"/>
<path d="M345 2230 c-3 -5 1 -10 9 -10 9 0 16 5 16 10 0 6 -4 10 -9 10 -6 0
-13 -4 -16 -10z"/>
<path d="M250 2210 c0 -5 5 -10 10 -10 6 0 10 5 10 10 0 6 -4 10 -10 10 -5 0
-10 -4 -10 -10z"/>
<path d="M227 2173 c7 -47 6 -46 20 -25 8 14 6 23 -8 40 l-18 23 6 -38z"/>
<path d="M317 2190 c3 -11 9 -20 14 -20 11 0 11 3 3 24 -9 23 -23 20 -17 -4z"/>
<path d="M270 2180 c0 -5 5 -10 10 -10 6 0 10 5 10 10 0 6 -4 10 -10 10 -5 0
-10 -4 -10 -10z"/>
<path d="M265 2140 c3 -5 10 -10 16 -10 5 0 9 5 9 10 0 6 -7 10 -16 10 -8 0
-12 -4 -9 -10z"/>
<path d="M125 2070 c3 -5 8 -10 11 -10 2 0 4 5 4 10 0 6 -5 10 -11 10 -5 0 -7
-4 -4 -10z"/>
<path d="M187 2059 c4 -13 9 -17 15 -11 11 11 3 32 -12 32 -4 0 -6 -9 -3 -21z"/>
<path d="M240 2070 c0 -5 5 -10 11 -10 5 0 7 5 4 10 -3 6 -8 10 -11 10 -2 0
-4 -4 -4 -10z"/>
<path d="M377 2046 c-4 -10 -5 -21 -2 -24 9 -9 17 6 13 25 -3 17 -4 17 -11 -1z"/>
<path d="M100 2030 c0 -5 5 -10 11 -10 5 0 7 5 4 10 -3 6 -8 10 -11 10 -2 0
-4 -4 -4 -10z"/>
<path d="M444 2032 c4 -7 1 -12 -8 -12 -9 0 -16 -4 -16 -9 0 -6 9 -9 20 -8 22
1 27 22 8 33 -7 4 -8 3 -4 -4z"/>
<path d="M0 2019 c0 -5 5 -7 10 -4 5 3 10 8 10 11 0 2 -4 4 -10 4 -5 0 -10 -5
-10 -11z"/>
<path d="M210 2020 c0 -5 5 -10 10 -10 6 0 10 5 10 10 0 6 -4 10 -10 10 -5 0
-10 -4 -10 -10z"/>
<path d="M110 2010 c-7 -4 -21 -5 -31 -3 -13 4 -19 0 -19 -11 0 -17 25 -22 34
-7 3 5 26 6 51 3 35 -3 45 -1 45 10 0 15 -58 22 -80 8z"/>
<path d="M9 1997 c-6 -18 -8 -47 -4 -64 4 -17 12 -22 35 -20 25 2 29 5 24 22
-4 11 -11 22 -15 23 -5 2 -9 10 -9 17 0 10 -28 31 -31 22z m31 -57 c0 -5 -4
-10 -10 -10 -5 0 -10 5 -10 10 0 6 5 10 10 10 6 0 10 -4 10 -10z"/>
<path d="M370 1996 c0 -2 7 -7 16 -10 8 -3 12 -2 9 4 -6 10 -25 14 -25 6z"/>
<path d="M200 1976 c0 -2 7 -6 15 -10 8 -3 15 -1 15 4 0 6 -7 10 -15 10 -8 0
-15 -2 -15 -4z"/>
<path d="M145 1959 c-10 -15 3 -25 16 -12 7 7 7 13 1 17 -6 3 -14 1 -17 -5z"/>
<path d="M75 1950 c3 -5 10 -10 16 -10 5 0 9 5 9 10 0 6 -7 10 -16 10 -8 0
-12 -4 -9 -10z"/>
<path d="M301 1945 c0 -5 6 -19 14 -29 8 -11 15 -15 15 -10 0 6 -7 19 -15 30
-8 10 -14 15 -14 9z"/>
<path d="M110 1930 c0 -5 5 -10 11 -10 5 0 7 5 4 10 -3 6 -8 10 -11 10 -2 0
-4 -4 -4 -10z"/>
<path d="M205 1920 c3 -5 8 -10 11 -10 2 0 4 5 4 10 0 6 -5 10 -11 10 -5 0 -7
-4 -4 -10z"/>
<path d="M0 1879 c0 -10 6 -20 13 -22 10 -4 10 -6 0 -6 -18 -1 -16 -31 2 -31
8 0 15 5 15 12 0 6 3 8 7 5 3 -4 -2 -16 -12 -27 -12 -13 -14 -20 -5 -20 6 0
10 -6 7 -14 -4 -10 1 -12 16 -9 18 5 20 3 10 -8 -16 -16 -17 -65 -2 -75 9 -5
10 1 5 19 -5 21 -3 25 9 21 8 -4 15 -10 15 -14 0 -16 40 -18 50 -2 8 15 9 15
10 -1 0 -14 5 -17 23 -11 12 3 25 13 30 20 4 7 14 11 22 8 23 -9 30 24 10 46
-22 24 -37 26 -28 4 5 -14 3 -15 -15 -5 -26 14 -30 14 -28 -1 0 -7 -3 -14 -9
-15 -13 -3 -27 48 -18 67 3 8 7 18 7 22 1 4 6 12 13 19 10 10 9 15 -5 25 -20
16 -36 18 -27 4 3 -5 -4 -19 -16 -31 -15 -15 -17 -20 -7 -16 10 3 19 0 22 -9
5 -12 -1 -15 -22 -12 -36 4 -44 43 -10 51 33 9 13 21 -37 22 -36 0 -45 -3 -45
-16z m110 -89 c0 -5 -4 -10 -9 -10 -6 0 -13 5 -16 10 -3 6 1 10 9 10 9 0 16
-4 16 -10z m-14 -29 c16 13 30 6 19 -10 -3 -6 -17 -11 -30 -11 -19 0 -23 4
-18 17 4 11 8 13 11 5 3 -10 7 -10 18 -1z m134 -16 c0 -8 -4 -15 -10 -15 -5 0
-10 7 -10 15 0 8 5 15 10 15 6 0 10 -7 10 -15z"/>
<path d="M192 1895 c4 -4 0 -14 -10 -21 -10 -8 -12 -13 -4 -14 6 0 12 -9 12
-20 0 -14 7 -20 21 -20 11 0 17 5 14 10 -3 6 -1 10 4 10 6 0 11 5 11 11 0 6
-9 8 -21 4 -18 -6 -20 -4 -15 13 4 12 2 23 -6 28 -7 4 -10 4 -6 -1z"/>
<path d="M359 1863 c-13 -17 -13 -17 6 -3 11 8 22 16 24 17 2 2 0 3 -6 3 -6 0
-17 -8 -24 -17z"/>
<path d="M260 1849 c0 -5 5 -7 10 -4 6 3 10 8 10 11 0 2 -4 4 -10 4 -5 0 -10
-5 -10 -11z"/>
<path d="M307 1854 c-7 -7 10 -39 35 -67 17 -19 17 -19 29 7 7 14 19 26 28 26
12 0 12 3 3 12 -10 10 -15 10 -21 -1 -7 -11 -14 -10 -39 7 -16 12 -32 19 -35
16z m53 -44 c0 -5 -4 -10 -10 -10 -5 0 -10 5 -10 10 0 6 5 10 10 10 6 0 10 -4
10 -10z"/>
<path d="M145 1830 c-7 -11 2 -30 15 -30 4 0 10 6 13 14 6 16 -19 30 -28 16z"/>
<path d="M416 1781 c-4 -5 -2 -12 3 -15 5 -4 12 -2 15 3 4 5 2 12 -3 15 -5 4
-12 2 -15 -3z"/>
<path d="M322 1758 c-6 -6 -12 -18 -12 -26 0 -10 3 -10 16 2 8 9 14 21 12 26
-2 7 -8 6 -16 -2z"/>
<path d="M770 1760 c0 -5 5 -10 11 -10 5 0 7 5 4 10 -3 6 -8 10 -11 10 -2 0
-4 -4 -4 -10z"/>
<path d="M240 1705 c0 -8 5 -15 10 -15 6 0 10 7 10 15 0 8 -4 15 -10 15 -5 0
-10 -7 -10 -15z"/>
<path d="M280 1690 c0 -5 5 -10 11 -10 5 0 7 5 4 10 -3 6 -8 10 -11 10 -2 0
-4 -4 -4 -10z"/>
<path d="M185 1680 c-3 -5 -1 -10 4 -10 6 0 11 5 11 10 0 6 -2 10 -4 10 -3 0
-8 -4 -11 -10z"/>
<path d="M285 1650 c3 -5 8 -10 11 -10 2 0 4 5 4 10 0 6 -5 10 -11 10 -5 0 -7
-4 -4 -10z"/>
<path d="M310 1619 c0 -18 2 -19 15 -9 15 12 12 30 -6 30 -5 0 -9 -10 -9 -21z"/>
<path d="M265 1619 c-4 -6 -5 -13 -2 -16 7 -7 27 6 27 18 0 12 -17 12 -25 -2z"/>
<path d="M50 1611 c0 -5 5 -13 10 -16 6 -3 10 -2 10 4 0 5 -4 13 -10 16 -5 3
-10 2 -10 -4z"/>
<path d="M300 1560 c0 -5 5 -10 10 -10 6 0 10 5 10 10 0 6 -4 10 -10 10 -5 0
-10 -4 -10 -10z"/>
<path d="M753 1448 c-7 -8 -10 -18 -6 -21 10 -10 41 -8 48 3 3 5 0 7 -9 4 -8
-3 -16 1 -18 12 -3 15 -5 15 -15 2z"/>
<path d="M855 1439 c-4 -6 -5 -12 -2 -15 2 -3 7 2 10 11 7 17 1 20 -8 4z"/>
<path d="M30 1416 c0 -9 5 -16 10 -16 6 0 10 4 10 9 0 6 -4 13 -10 16 -5 3
-10 -1 -10 -9z"/>
<path d="M80 1340 c0 -11 5 -20 12 -20 6 0 8 3 5 7 -4 3 -2 12 4 20 9 10 8 13
-5 13 -9 0 -16 -8 -16 -20z"/>
<path d="M0 1290 c0 -13 5 -20 13 -17 6 2 12 10 12 17 0 7 -6 15 -12 18 -8 2
-13 -5 -13 -18z"/>
<path d="M457 1233 c-4 -3 -7 -11 -7 -17 0 -6 5 -5 12 2 6 6 9 14 7 17 -3 3
-9 2 -12 -2z"/>
<path d="M200 1223 c0 -15 19 -37 26 -31 3 4 -1 14 -10 23 -9 9 -16 13 -16 8z"/>
<path d="M14 1208 c-4 -7 -4 -10 1 -6 4 4 15 2 23 -5 12 -10 14 -9 11 2 -7 20
-26 25 -35 9z"/>
<path d="M380 1210 c0 -5 7 -10 16 -10 8 0 12 5 9 10 -3 6 -10 10 -16 10 -5 0
-9 -4 -9 -10z"/>
<path d="M66 1178 c-9 -37 -7 -44 15 -44 17 0 19 5 14 26 -9 37 -21 45 -29 18z"/>
<path d="M120 1153 c0 -15 15 -28 33 -29 23 -2 22 13 -2 26 -23 12 -31 13 -31
3z"/>
<path d="M0 1130 c0 -11 5 -20 11 -20 6 0 9 6 6 14 -4 9 1 17 11 19 12 3 11 5
-5 6 -17 1 -23 -5 -23 -19z"/>
<path d="M193 1123 c-7 -3 -13 -11 -13 -19 0 -8 -5 -14 -11 -14 -5 0 -7 -4 -4
-10 9 -15 25 -12 25 5 0 7 7 18 16 23 18 10 7 22 -13 15z"/>
<path d="M279 1113 c-13 -15 -12 -15 9 -4 23 12 28 21 13 21 -5 0 -15 -7 -22
-17z"/>
<path d="M2333 1101 c-40 -25 -51 -62 -29 -97 35 -53 104 -53 141 0 21 29 19
51 -7 80 -32 35 -66 41 -105 17z m85 -23 c14 -14 16 -68 3 -68 -6 0 -11 15
-13 33 -3 28 -6 32 -33 32 -27 0 -30 -3 -30 -34 0 -36 21 -55 27 -24 3 16 5
15 16 -4 12 -21 11 -23 -16 -23 -15 0 -33 5 -40 12 -17 17 -15 54 4 72 18 19
65 21 82 4z"/>
<path d="M330 1080 c0 -5 5 -10 10 -10 6 0 10 5 10 10 0 6 -4 10 -10 10 -5 0
-10 -4 -10 -10z"/>
<path d="M70 1059 c0 -17 3 -19 14 -10 11 9 15 9 19 -1 4 -9 6 -10 6 -1 1 7
-8 17 -19 23 -17 9 -20 8 -20 -11z"/>
<path d="M140 1051 c0 -5 5 -11 11 -13 9 -3 9 -9 0 -25 -8 -17 -8 -24 1 -29 6
-4 8 -3 5 3 -4 6 0 16 8 23 20 16 19 23 -5 38 -11 7 -20 8 -20 3z"/>
<path d="M195 1050 c3 -5 8 -10 11 -10 2 0 4 5 4 10 0 6 -5 10 -11 10 -5 0 -7
-4 -4 -10z"/>
<path d="M387 1041 c5 -21 29 -35 37 -23 3 5 1 14 -5 22 -5 8 -9 11 -9 6 0 -5
-6 -3 -14 3 -12 10 -13 9 -9 -8z"/>
<path d="M353 1037 c4 -12 2 -14 -9 -10 -14 5 -14 3 -2 -18 7 -13 17 -27 22
-30 5 -4 6 -14 3 -22 -8 -22 25 -32 39 -13 6 9 21 16 33 16 35 0 24 19 -16 27
-21 4 -42 6 -46 5 -4 -1 -6 10 -5 24 2 16 -3 29 -11 32 -10 3 -12 0 -8 -11z"/>
<path d="M220 1032 c0 -7 -7 -12 -16 -12 -8 0 -12 -4 -9 -10 3 -5 10 -10 15
-10 10 0 22 31 15 38 -3 3 -5 0 -5 -6z"/>
<path d="M62 1021 c0 -3 0 -14 -1 -24 -1 -17 -3 -17 -23 -3 -27 19 -38 20 -38
4 0 -7 16 -21 36 -31 25 -12 34 -13 33 -5 -4 33 2 47 16 42 10 -4 13 -2 10 8
-6 14 -35 21 -33 9z"/>
<path d="M193 976 c16 -23 30 -25 35 -3 2 9 -7 16 -23 19 -24 5 -25 4 -12 -16z"/>
<path d="M293 965 c-9 -24 1 -27 15 -5 8 13 8 20 2 20 -6 0 -13 -7 -17 -15z"/>
<path d="M470 970 c0 -5 5 -10 10 -10 6 0 10 5 10 10 0 6 -4 10 -10 10 -5 0
-10 -4 -10 -10z"/>
<path d="M1236 953 c-6 -14 -5 -15 5 -6 7 7 10 15 7 18 -3 3 -9 -2 -12 -12z"/>
<path d="M76 945 c-3 -8 -1 -15 4 -15 6 0 10 7 10 15 0 8 -2 15 -4 15 -2 0 -6
-7 -10 -15z"/>
<path d="M91 784 c0 -11 3 -14 6 -6 3 7 2 16 -1 19 -3 4 -6 -2 -5 -13z"/>
<path d="M90 729 c0 -5 5 -7 11 -3 8 5 10 -1 7 -20 -4 -21 -1 -26 14 -26 30 0
21 52 -9 56 -13 2 -23 -1 -23 -7z"/>
<path d="M95 649 c-4 -6 -5 -13 -2 -16 7 -7 27 6 27 18 0 12 -17 12 -25 -2z"/>
<path d="M140 643 c0 -5 5 -15 10 -23 8 -12 10 -11 10 8 0 12 -4 22 -10 22 -5
0 -10 -3 -10 -7z"/>
<path d="M200 569 c0 -5 5 -7 10 -4 6 3 10 8 10 11 0 2 -4 4 -10 4 -5 0 -10
-5 -10 -11z"/>
<path d="M170 526 c0 -15 18 -31 26 -23 7 7 -7 37 -17 37 -5 0 -9 -6 -9 -14z"/>
<path d="M1402 463 c2 -21 6 -37 11 -35 4 1 6 3 5 5 -1 1 4 11 10 23 9 16 7
22 -9 33 -19 11 -20 10 -17 -26z"/>
<path d="M690 426 c0 -8 -2 -20 -3 -28 -2 -7 -2 -10 0 -5 3 4 11 7 18 7 8 0
11 7 8 20 -6 23 -23 27 -23 6z"/>
<path d="M1475 370 c3 -5 8 -10 11 -10 2 0 4 5 4 10 0 6 -5 10 -11 10 -5 0 -7
-4 -4 -10z"/>
<path d="M1390 350 c0 -5 5 -10 10 -10 6 0 10 5 10 10 0 6 -4 10 -10 10 -5 0
-10 -4 -10 -10z"/>
<path d="M42 13 c27 -2 69 -2 95 0 27 2 5 3 -47 3 -52 0 -74 -1 -48 -3z"/>
<path d="M203 13 c9 -2 25 -2 35 0 9 3 1 5 -18 5 -19 0 -27 -2 -17 -5z"/>
<path d="M338 13 c7 -3 16 -2 19 1 4 3 -2 6 -13 5 -11 0 -14 -3 -6 -6z"/>
<path d="M408 13 c18 -2 45 -2 60 0 15 2 0 4 -33 4 -33 0 -45 -2 -27 -4z"/>
<path d="M1008 13 c7 -3 16 -2 19 1 4 3 -2 6 -13 5 -11 0 -14 -3 -6 -6z"/>
<path d="M1118 13 c12 -2 30 -2 40 0 9 3 -1 5 -23 4 -22 0 -30 -2 -17 -4z"/>
<path d="M1573 13 c9 -2 25 -2 35 0 9 3 1 5 -18 5 -19 0 -27 -2 -17 -5z"/>
<path d="M2898 13 c7 -3 16 -2 19 1 4 3 -2 6 -13 5 -11 0 -14 -3 -6 -6z"/>
<path d="M3088 13 c7 -3 16 -2 19 1 4 3 -2 6 -13 5 -11 0 -14 -3 -6 -6z"/>
<path d="M3158 13 c6 -2 18 -2 25 0 6 3 1 5 -13 5 -14 0 -19 -2 -12 -5z"/>
</g>
</svg>
